<?xml version="1.0" encoding="UTF-8" standalone="no"?>

<svg
   xmlns:dc="http://purl.org/dc/elements/1.1/"
   xmlns:cc="http://creativecommons.org/ns#"
   xmlns:rdf="http://www.w3.org/1999/02/22-rdf-syntax-ns#"
   xmlns:svg="http://www.w3.org/2000/svg"
   xmlns="http://www.w3.org/2000/svg"
   xmlns:xlink="http://www.w3.org/1999/xlink"
   xmlns:sodipodi="http://sodipodi.sourceforge.net/DTD/sodipodi-0.dtd"
   xmlns:inkscape="http://www.inkscape.org/namespaces/inkscape"
   version="1.0"
   id="Layer_1"
   x="0px"
   y="0px"
   width="210mm"
   height="297mm"
   viewBox="0 0 744.09445 1052.3622"
   enable-background="new 0 0 498.898 708.661"
   xml:space="preserve"
   inkscape:version="0.91 r13725"
   sodipodi:docname="cover.svg"><metadata
     id="metadata171"><rdf:RDF><cc:Work
         rdf:about=""><dc:format>image/svg+xml</dc:format><dc:type
           rdf:resource="http://purl.org/dc/dcmitype/StillImage" /><dc:title></dc:title></cc:Work></rdf:RDF></metadata><defs
     id="defs169" /><sodipodi:namedview
     pagecolor="#ffffff"
     bordercolor="#666666"
     borderopacity="1"
     objecttolerance="10"
     gridtolerance="10"
     guidetolerance="10"
     inkscape:pageopacity="0"
     inkscape:pageshadow="2"
     inkscape:window-width="2498"
     inkscape:window-height="1418"
     id="namedview167"
     showgrid="false"
     inkscape:zoom="0.94192963"
     inkscape:cx="198.57236"
     inkscape:cy="499.90553"
     inkscape:window-x="54"
     inkscape:window-y="-8"
     inkscape:window-maximized="1"
     inkscape:current-layer="Layer_1"
     units="mm" /><g
     id="g3"
     transform="matrix(1.4984722,0,0,1.4984722,-2.9073291,-2.2294638)"><defs
       id="defs5"><rect
         id="SVGID_1_"
         x="0.149"
         y="0.47099999"
         width="498.74799"
         height="707.71698" /></defs><clipPath
       id="SVGID_2_"><use
         xlink:href="#SVGID_1_"
         overflow="visible"
         id="use9"
         style="overflow:visible"
         x="0"
         y="0"
         width="100%"
         height="100%" /></clipPath><path
       clip-path="url(#SVGID_2_)"
       d="m 13.857,31.32 c 0,-9.249 7.521,-16.747 16.798,-16.747 l 437.481,0 c 9.279,0 16.798,7.498 16.798,16.747 l 0.3,645.916 c 0,9.25 -7.521,16.746 -16.799,16.746 l -437.78,0 c -9.276,0 -16.499,-7.496 -16.499,-16.746 L 13.857,31.32 Z"
       id="path11"
       inkscape:connector-curvature="0"
       style="fill:#0066b3" /></g><g
     id="g13"
     transform="matrix(1.4984722,0,0,1.4984722,-2.9073291,-2.2294638)"><defs
       id="defs15"><path
         id="SVGID_3_"
         d="M 269.097,127.043 C 153.454,136.631 70.755,172.588 13.94,210.668 L 14.011,363.67 C 56.67,303.606 141.784,229.828 302.397,230.26 c 67.42,0.181 128.517,-7.821 182.619,-20.246 L 484.937,38.685 c -54.019,47.594 -124.349,80.772 -215.84,88.358"
         inkscape:connector-curvature="0" /></defs><clipPath
       id="SVGID_4_"><use
         xlink:href="#SVGID_3_"
         overflow="visible"
         id="use19"
         style="overflow:visible"
         x="0"
         y="0"
         width="100%"
         height="100%" /></clipPath><rect
       x="-8.8269997"
       y="-7.006"
       clip-path="url(#SVGID_4_)"
       width="516.80103"
       height="724.672"
       id="rect21"
       style="fill:#ffffff" /><path
       clip-path="url(#SVGID_4_)"
       d="m 13.857,32.319 c 0,-9.249 7.521,-16.747 16.798,-16.747 l 437.481,0 c 9.277,0 16.798,7.498 16.798,16.747 l 0.299,645.916 c 0,9.247 -7.521,16.745 -16.798,16.745 l -437.78,0 c -9.277,0 -16.5,-7.498 -16.5,-16.745 L 13.857,32.319 Z"
       id="path23"
       inkscape:connector-curvature="0"
       style="fill:#80a0d3" /></g><g
     id="g25"
     transform="matrix(1.4984722,0,0,1.4984722,-2.9073291,-2.2294638)"><defs
       id="defs27"><path
         id="SVGID_5_"
         d="m 30.656,14.574 c -9.277,0 -16.799,7.497 -16.799,16.745 l 0.151,324.084 C 54.15,290.236 125.988,215.612 253.252,174.363 340.691,146.021 388.012,83.076 412.867,14.574 l -382.211,0 z"
         inkscape:connector-curvature="0" /></defs><clipPath
       id="SVGID_6_"><use
         xlink:href="#SVGID_5_"
         overflow="visible"
         id="use31"
         style="overflow:visible"
         x="0"
         y="0"
         width="100%"
         height="100%" /></clipPath><rect
       x="-8.8260002"
       y="-8.0059996"
       clip-path="url(#SVGID_6_)"
       width="516.80103"
       height="724.672"
       id="rect33"
       style="fill:#ffffff" /><path
       clip-path="url(#SVGID_6_)"
       d="m 13.857,31.32 c 0,-9.249 7.521,-16.747 16.798,-16.747 l 437.481,0 c 9.279,0 16.798,7.498 16.798,16.747 l 0.3,645.916 c 0,9.248 -7.521,16.746 -16.799,16.746 l -437.78,0 c -9.276,0 -16.499,-7.498 -16.499,-16.746 L 13.857,31.32 Z"
       id="path35"
       inkscape:connector-curvature="0"
       style="fill:#80a0d3" /></g><g
     id="g37"
     transform="matrix(1.4984722,0,0,1.4984722,-2.9073291,-2.2294638)"><defs
       id="defs39"><path
         id="SVGID_7_"
         d="M 269.098,126.042 C 153.454,135.631 70.755,171.588 13.94,209.669 l 0.027,57.923 0.041,87.809 c 40.141,-65.164 111.981,-139.79 239.244,-181.038 43.746,-14.18 77.453,-37.026 103.328,-64.897 -26.767,8.276 -55.859,13.955 -87.482,16.576"
         inkscape:connector-curvature="0" /></defs><clipPath
       id="SVGID_8_"><use
         xlink:href="#SVGID_7_"
         overflow="visible"
         id="use43"
         style="overflow:visible"
         x="0"
         y="0"
         width="100%"
         height="100%" /></clipPath><rect
       x="-8.8260002"
       y="-8.0059996"
       clip-path="url(#SVGID_8_)"
       width="516.80103"
       height="724.672"
       id="rect45"
       style="fill:#ffffff" /><path
       clip-path="url(#SVGID_8_)"
       d="m 13.857,31.32 c 0,-9.249 7.521,-16.747 16.798,-16.747 l 437.481,0 c 9.279,0 16.798,7.498 16.798,16.747 l 0.3,645.916 c 0,9.248 -7.521,16.746 -16.799,16.746 l -437.78,0 c -9.276,0 -16.499,-7.498 -16.499,-16.746 L 13.857,31.32 Z"
       id="path47"
       inkscape:connector-curvature="0"
       style="fill:#bbc9e7" /></g><g
     id="g49"
     transform="matrix(1.4984722,0,0,1.4984722,-2.9073291,-2.2294638)"><defs
       id="defs51"><path
         id="SVGID_9_"
         d="m 13.994,324.524 0.005,11.25 5.767,-11.25 -5.772,0 z m -0.006,-13.347 0.006,13.347 5.772,0 7.496,-13.347 -13.274,0 z m -0.006,-13.536 0.006,13.536 13.274,0 8.311,-13.536 -21.591,0 z m -0.007,-13.658 0.007,13.658 21.591,0 9.173,-13.658 -30.771,0 z m -0.006,-13.723 0.006,13.723 30.771,0 10.073,-13.723 -40.85,0 z m -0.007,-13.715 0.007,13.715 40.85,0 11.019,-13.715 -51.876,0 z m -0.006,-13.656 0.006,13.656 51.876,0 12.003,-13.656 -63.885,0 z m -0.006,-13.527 0.006,13.527 63.885,0 13.033,-13.527 -76.924,0 z m -0.006,-13.341 0.006,13.341 76.924,0 14.101,-13.341 -91.031,0 z m -0.007,-13.087 0.007,13.087 91.031,0 15.216,-13.087 -106.254,0 z m -0.005,-12.774 0.005,12.774 106.254,0 16.37,-12.774 -122.629,0 z m -0.005,-12.399 0.005,12.399 122.629,0 17.565,-12.399 -140.199,0 z m -0.006,-11.959 0.006,11.959 140.199,0 18.804,-11.959 -159.009,0 z m -0.006,-11.46 0.006,11.46 159.009,0 20.087,-11.46 -179.102,0 z m -0.005,-10.896 0.005,10.896 179.102,0 21.409,-10.896 -200.516,0 z m -0.004,-10.27 0.004,10.27 200.516,0 22.773,-10.27 -223.293,0 z m -0.003,-4.768 0.003,4.768 223.293,0 10.621,-4.768 -233.917,0 z m -0.003,-5.09 0.003,5.09 233.917,0 10.164,-5.09 -244.084,0 z m -0.001,-5.407 0.001,5.407 244.083,0 9.708,-5.407 -253.792,0 z m -0.004,-5.708 0.004,5.708 253.792,0 9.264,-5.708 -263.06,0 z m -0.003,-5.998 0.003,5.998 263.06,0 8.829,-5.998 -271.892,0 z m -0.002,-6.272 0.002,6.272 271.892,0 8.407,-6.272 -280.301,0 z m -0.003,-6.536 0.003,6.536 280.301,0 7.988,-6.536 -288.292,0 z m -0.003,-6.784 0.003,6.784 288.293,0 7.587,-6.784 -295.883,0 z m -0.003,-7.025 0.003,7.025 295.883,0 7.189,-7.025 -303.075,0 z m -0.004,-7.248 0.004,7.248 303.075,0 6.804,-7.248 -309.883,0 z m -0.003,-7.458 0.003,7.458 309.883,0 6.422,-7.458 -316.308,0 z m -0.004,-7.656 0.004,7.656 316.308,0 6.061,-7.656 -322.373,0 z m -0.004,-7.844 0.004,7.844 322.372,0 5.698,-7.844 -328.074,0 z m -0.003,-8.015 0.003,8.015 328.074,0 5.351,-8.015 -333.428,0 z m -0.004,-8.178 0.004,8.178 333.428,0 5.01,-8.178 -338.442,0 z m -0.002,-1.868 0.002,1.868 338.442,0 1.051,-1.868 -339.495,0 z m 0,0 339.494,0 0,-0.002 -339.494,0 0,0.002 z m 0.342,-3.378 -0.342,3.376 339.495,0 1.901,-3.376 -341.054,0 z m 0.958,-3.075 -0.958,3.075 341.054,0 1.731,-3.075 -341.827,0 z m 0.021,-0.067 -0.021,0.067 341.827,0 0.032,-0.067 -341.838,0 z m 1.549,-2.845 -1.549,2.845 341.838,0 1.468,-2.845 -341.757,0 z m 2.051,-2.478 -2.051,2.478 341.757,0 1.276,-2.478 -340.982,0 z m 2.484,-2.045 -2.484,2.045 340.983,0 1.054,-2.045 -339.553,0 z m 1.894,-1.024 -1.894,1.024 339.552,0 0.527,-1.024 -338.185,0 z m 0.96,-0.519 -0.96,0.519 338.186,0 0.246,-0.519 -337.472,0 z m 3.153,-0.976 -3.153,0.976 337.472,0 0.459,-0.976 -334.778,0 z m 3.387,-0.34 -3.387,0.34 334.778,0 0.162,-0.34 -331.553,0 z"
         inkscape:connector-curvature="0" /></defs><clipPath
       id="SVGID_10_"><use
         xlink:href="#SVGID_9_"
         overflow="visible"
         id="use55"
         style="overflow:visible"
         x="0"
         y="0"
         width="100%"
         height="100%" /></clipPath><rect
       x="-8.8269997"
       y="-8.0059996"
       clip-path="url(#SVGID_10_)"
       width="516.80103"
       height="724.672"
       id="rect57"
       style="fill:#ffffff" /><path
       clip-path="url(#SVGID_10_)"
       d="m 13.857,31.32 c 0,-9.25 7.521,-16.747 16.798,-16.747 l 437.481,0 c 9.278,0 16.798,7.497 16.798,16.747 l 0.299,645.914 c 0,9.25 -7.52,16.746 -16.798,16.746 l -437.78,0 c -9.276,0 -16.499,-7.496 -16.499,-16.746 L 13.857,31.32 Z"
       id="path59"
       inkscape:connector-curvature="0"
       style="fill:#d5ddf0" /></g><g
     id="g61"
     transform="matrix(1.4984722,0,0,1.4984722,-2.9073291,-2.2294638)"><defs
       id="defs63"><path
         id="SVGID_11_"
         d="m 13.994,324.524 0.005,11.25 5.767,-11.25 -5.772,0 z m -0.006,-13.347 0.006,13.347 5.772,0 7.496,-13.347 -13.274,0 z m -0.006,-13.536 0.006,13.536 13.274,0 8.311,-13.536 -21.591,0 z m -0.007,-13.658 0.007,13.658 21.591,0 9.173,-13.658 -30.771,0 z m -0.006,-13.723 0.006,13.723 30.771,0 10.073,-13.723 -40.85,0 z m -0.007,-13.715 0.007,13.715 40.85,0 11.019,-13.715 -51.876,0 z m -0.006,-13.656 0.006,13.656 51.876,0 12.003,-13.656 -63.885,0 z m -0.006,-13.527 0.006,13.527 63.885,0 13.033,-13.527 -76.924,0 z m -0.006,-13.341 0.006,13.341 76.924,0 14.101,-13.341 -91.031,0 z m 10.359,-13.087 c -3.548,2.235 -6.998,4.479 -10.362,6.734 l 0.003,6.353 91.031,0 15.216,-13.087 -95.888,0 z M 45.898,190.16 c -7.548,4.186 -14.746,8.458 -21.595,12.774 l 95.888,0 16.37,-12.774 -90.663,0 z m 23.977,-12.399 c -8.361,4.023 -16.35,8.169 -23.977,12.399 l 90.663,0 17.565,-12.399 -84.251,0 z M 96.8,165.802 c -9.378,3.832 -18.344,7.829 -26.925,11.959 l 84.251,0 18.804,-11.959 -76.13,0 z m 30.87,-11.46 c -10.742,3.602 -21.031,7.439 -30.87,11.46 l 76.13,0 20.087,-11.46 -65.347,0 z m 36.804,-10.896 c -12.822,3.314 -25.09,6.968 -36.804,10.896 l 65.347,0 21.409,-10.896 -49.952,0 z m 48.027,-10.27 c -16.826,2.883 -32.815,6.337 -48.027,10.27 l 49.952,0 22.773,-10.27 -24.698,0 z m 33.028,-4.768 c -11.344,1.341 -22.353,2.939 -33.028,4.768 l 24.698,0 10.621,-4.768 -2.291,0 z m 0,0 2.291,0 0.69,-0.345 c -0.998,0.114 -1.989,0.228 -2.981,0.345"
         inkscape:connector-curvature="0" /></defs><clipPath
       id="SVGID_12_"><use
         xlink:href="#SVGID_11_"
         overflow="visible"
         id="use67"
         style="overflow:visible"
         x="0"
         y="0"
         width="100%"
         height="100%" /></clipPath><rect
       x="-8.8269997"
       y="-8.0059996"
       clip-path="url(#SVGID_12_)"
       width="516.80103"
       height="724.672"
       id="rect69"
       style="fill:#ffffff" /><path
       clip-path="url(#SVGID_12_)"
       d="m 13.857,31.32 c 0,-9.25 7.521,-16.747 16.798,-16.747 l 437.481,0 c 9.278,0 16.798,7.497 16.798,16.747 l 0.299,645.914 c 0,9.25 -7.52,16.746 -16.798,16.746 l -437.78,0 c -9.276,0 -16.499,-7.496 -16.499,-16.746 L 13.857,31.32 Z"
       id="path71"
       inkscape:connector-curvature="0"
       style="fill:#e8ecf7" /></g><g
     id="g73"
     transform="matrix(1.4984722,0,0,1.4984722,-2.9073291,-2.2294638)"><defs
       id="defs75"><rect
         id="SVGID_13_"
         x="37.893002"
         y="35.999001"
         width="215.155"
         height="49.000999" /></defs><clipPath
       id="SVGID_14_"><use
         xlink:href="#SVGID_13_"
         overflow="visible"
         id="use79"
         style="overflow:visible"
         x="0"
         y="0"
         width="100%"
         height="100%" /></clipPath><path
       clip-path="url(#SVGID_14_)"
       d="m 97.866,64.292 0,3.814 c 0,1.327 0.824,2.343 2.207,2.343 1.384,0 2.207,-1.016 2.207,-2.343 l 0,-3.814 -0.752,0 0,3.558 c 0,0.983 -0.295,1.895 -1.455,1.895 -1.159,0 -1.455,-0.912 -1.455,-1.895 l 0,-3.558 -0.752,0 z"
       id="path81"
       inkscape:connector-curvature="0" /><polygon
       clip-path="url(#SVGID_14_)"
       points="108.776,64.293 105.163,64.293 105.163,64.979 106.594,64.979 106.594,70.321 107.345,70.321 107.345,64.979 108.776,64.979 "
       id="polygon83" /><path
       clip-path="url(#SVGID_14_)"
       d="m 111.705,70.321 1.407,0 c 1.063,0 2.095,-0.48 2.095,-1.687 0,-0.704 -0.496,-1.399 -1.208,-1.527 l 0,-0.016 c 0.408,-0.192 0.648,-0.704 0.648,-1.144 0,-1.359 -1.072,-1.654 -2.207,-1.654 l -0.735,0 0,6.028 z m 0.751,-2.758 0.464,0 c 0.671,0 1.535,0.176 1.535,1.023 0,0.856 -0.728,1.064 -1.423,1.064 l -0.576,0 0,-2.087 z m 0,-2.599 0.208,0 c 0.704,0 1.279,0.144 1.279,0.991 0,0.864 -0.583,1.008 -1.295,1.008 l -0.192,0 0,-1.999 z"
       id="path85"
       inkscape:connector-curvature="0"
       style="clip-rule:evenodd;fill-rule:evenodd" /><rect
       x="118.424"
       y="64.292"
       clip-path="url(#SVGID_14_)"
       width="0.75199997"
       height="6.0289998"
       id="rect87" /><polygon
       clip-path="url(#SVGID_14_)"
       points="123.455,64.292 122.703,64.292 122.703,70.321 125.286,70.321 125.286,69.633 123.455,69.633 "
       id="polygon89" /><path
       clip-path="url(#SVGID_14_)"
       d="m 128.869,64.98 0.264,0 c 1.535,0 2.863,0.568 2.863,2.327 0,1.751 -1.328,2.326 -2.863,2.326 l -0.264,0 0,-4.653 z m -0.751,5.341 1.223,0 c 1.903,0 3.406,-0.991 3.406,-3.046 0,-2.007 -1.535,-2.983 -3.382,-2.983 l -1.247,0 0,6.029 z"
       id="path91"
       inkscape:connector-curvature="0"
       style="clip-rule:evenodd;fill-rule:evenodd" /><polygon
       clip-path="url(#SVGID_14_)"
       points="136.66,65.827 141.185,70.569 141.185,64.292 140.434,64.292 140.434,68.746 135.908,64.004 135.908,70.321 136.66,70.321 "
       id="polygon93" /><rect
       x="144.716"
       y="64.292"
       clip-path="url(#SVGID_14_)"
       width="0.75099999"
       height="6.0289998"
       id="rect95" /><polygon
       clip-path="url(#SVGID_14_)"
       points="149.755,65.827 154.281,70.569 154.281,64.292 153.529,64.292 153.529,68.746 149.003,64.004 149.003,70.321 149.755,70.321 "
       id="polygon97" /><path
       clip-path="url(#SVGID_14_)"
       d="m 160.857,67.282 0,0.688 1.559,0 c -0.032,0.983 -1.04,1.791 -1.975,1.791 -1.303,0 -2.343,-1.2 -2.343,-2.463 0,-1.351 1.056,-2.447 2.407,-2.447 0.735,0 1.463,0.392 1.895,0.984 l 0.527,-0.504 c -0.591,-0.744 -1.518,-1.167 -2.454,-1.167 -1.735,0 -3.126,1.423 -3.126,3.158 0,1.671 1.359,3.126 3.046,3.126 1.687,0 2.855,-1.271 2.855,-2.926 l 0,-0.24 -2.391,0 z"
       id="path99"
       inkscape:connector-curvature="0" /><path
       clip-path="url(#SVGID_14_)"
       d="m 169.752,65.076 c -0.328,-0.584 -0.88,-0.911 -1.551,-0.911 -0.912,0 -1.775,0.583 -1.775,1.559 0,0.839 0.623,1.231 1.311,1.527 l 0.416,0.176 c 0.519,0.215 1.039,0.495 1.039,1.143 0,0.632 -0.464,1.175 -1.111,1.175 -0.648,0 -1.176,-0.479 -1.168,-1.143 l -0.76,0.16 c 0.128,0.967 0.888,1.687 1.864,1.687 1.079,0 1.927,-0.783 1.927,-1.879 0,-1.008 -0.64,-1.479 -1.496,-1.815 l -0.431,-0.168 c -0.376,-0.144 -0.84,-0.392 -0.84,-0.863 0,-0.528 0.528,-0.856 1.007,-0.856 0.456,0 0.744,0.192 0.968,0.568 l 0.6,-0.36 z"
       id="path101"
       inkscape:connector-curvature="0" /><path
       clip-path="url(#SVGID_14_)"
       d="m 176.526,65.076 c -0.328,-0.584 -0.879,-0.911 -1.551,-0.911 -0.912,0 -1.775,0.583 -1.775,1.559 0,0.839 0.624,1.231 1.311,1.527 l 0.416,0.176 c 0.519,0.215 1.039,0.495 1.039,1.143 0,0.632 -0.463,1.175 -1.111,1.175 -0.647,0 -1.175,-0.479 -1.167,-1.143 l -0.76,0.16 c 0.128,0.967 0.888,1.687 1.863,1.687 1.079,0 1.927,-0.783 1.927,-1.879 0,-1.008 -0.64,-1.479 -1.495,-1.815 l -0.432,-0.168 c -0.376,-0.144 -0.839,-0.392 -0.839,-0.863 0,-0.528 0.527,-0.856 1.007,-0.856 0.456,0 0.743,0.192 0.967,0.568 l 0.6,-0.36 z"
       id="path103"
       inkscape:connector-curvature="0" /><polygon
       clip-path="url(#SVGID_14_)"
       points="183.077,64.293 179.463,64.293 179.463,64.979 180.895,64.979 180.895,70.321 181.646,70.321 181.646,64.979 183.077,64.979 "
       id="polygon105" /><polygon
       clip-path="url(#SVGID_14_)"
       points="187.492,67.698 187.492,70.321 188.244,70.321 188.244,67.698 190.211,64.292 189.347,64.292 187.868,66.866 186.389,64.292 185.525,64.292 "
       id="polygon107" /><path
       clip-path="url(#SVGID_14_)"
       d="m 193.885,64.964 0.199,0 c 0.744,0 1.639,0.135 1.639,1.079 0,0.959 -0.831,1.103 -1.598,1.103 l -0.24,0 0,-2.182 z m 1.095,2.734 c 0.871,-0.104 1.447,-0.824 1.447,-1.687 0,-0.576 -0.288,-1.143 -0.792,-1.439 -0.479,-0.272 -1.055,-0.28 -1.591,-0.28 l -0.911,0 0,6.029 0.752,0 0,-2.551 0.311,0 1.775,2.551 0.912,0 -1.903,-2.623 z"
       id="path109"
       inkscape:connector-curvature="0"
       style="clip-rule:evenodd;fill-rule:evenodd" /><polygon
       clip-path="url(#SVGID_14_)"
       points="203.043,66.667 200.628,66.667 200.628,64.98 203.116,64.98 203.116,64.292 199.877,64.292 199.877,70.321 203.116,70.321 203.116,69.633 200.628,69.633 200.628,67.355 203.043,67.355 "
       id="polygon111" /><polygon
       clip-path="url(#SVGID_14_)"
       points="207.197,64.292 206.446,64.292 206.446,70.321 209.028,70.321 209.028,69.633 207.197,69.633 "
       id="polygon113" /><path
       clip-path="url(#SVGID_14_)"
       d="m 215.283,65.076 c -0.328,-0.584 -0.88,-0.911 -1.551,-0.911 -0.912,0 -1.775,0.583 -1.775,1.559 0,0.839 0.623,1.231 1.311,1.527 l 0.416,0.176 c 0.519,0.215 1.039,0.495 1.039,1.143 0,0.632 -0.464,1.175 -1.111,1.175 -0.648,0 -1.176,-0.479 -1.167,-1.143 l -0.76,0.16 c 0.128,0.967 0.887,1.687 1.863,1.687 1.079,0 1.927,-0.783 1.927,-1.879 0,-1.008 -0.64,-1.479 -1.495,-1.815 l -0.432,-0.168 c -0.376,-0.144 -0.84,-0.392 -0.84,-0.863 0,-0.528 0.528,-0.856 1.007,-0.856 0.457,0 0.744,0.192 0.968,0.568 l 0.6,-0.36 z"
       id="path115"
       inkscape:connector-curvature="0" /><polygon
       clip-path="url(#SVGID_14_)"
       points="221.945,66.667 219.53,66.667 219.53,64.98 222.017,64.98 222.017,64.292 218.779,64.292 218.779,70.321 222.017,70.321 222.017,69.633 219.53,69.633 219.53,67.355 221.945,67.355 "
       id="polygon117" /><polygon
       clip-path="url(#SVGID_14_)"
       points="226.106,65.827 230.632,70.569 230.632,64.292 229.88,64.292 229.88,68.746 225.355,64.004 225.355,70.321 226.106,70.321 "
       id="polygon119" /><path
       clip-path="url(#SVGID_14_)"
       d="m 100.705,56.146 c -1.304,0 -2.407,-1.064 -2.407,-2.439 0,-1.327 0.992,-2.438 2.407,-2.438 1.415,0 2.407,1.111 2.407,2.438 0,1.374 -1.104,2.439 -2.407,2.439 m 0,-5.582 c -1.727,0 -3.158,1.415 -3.158,3.142 0,1.791 1.415,3.143 3.158,3.143 1.743,0 3.158,-1.352 3.158,-3.143 0,-1.727 -1.431,-3.142 -3.158,-3.142"
       id="path121"
       inkscape:connector-curvature="0"
       style="clip-rule:evenodd;fill-rule:evenodd" /><path
       clip-path="url(#SVGID_14_)"
       d="m 107.745,51.363 0.2,0 c 0.744,0 1.639,0.112 1.639,1.056 0,0.959 -0.831,1.103 -1.599,1.103 l -0.24,0 0,-2.159 z m 0,2.831 0.432,0 c 1.143,0 2.111,-0.488 2.111,-1.759 0,-1.104 -0.576,-1.743 -2.43,-1.743 l -0.864,0 0,6.029 0.751,0 0,-2.527 z"
       id="path123"
       inkscape:connector-curvature="0"
       style="clip-rule:evenodd;fill-rule:evenodd" /><polygon
       clip-path="url(#SVGID_14_)"
       points="116.678,53.067 114.263,53.067 114.263,51.38 116.75,51.38 116.75,50.692 113.512,50.692 113.512,56.721 116.75,56.721 116.75,56.033 114.263,56.033 114.263,53.755 116.678,53.755 "
       id="polygon125" /><polygon
       clip-path="url(#SVGID_14_)"
       points="123.215,50.693 119.601,50.693 119.601,51.38 121.032,51.38 121.032,56.721 121.784,56.721 121.784,51.38 123.215,51.38 "
       id="polygon127" /><path
       clip-path="url(#SVGID_14_)"
       d="m 126.183,50.692 0,3.814 c 0,1.327 0.823,2.343 2.206,2.343 1.384,0 2.207,-1.016 2.207,-2.343 l 0,-3.814 -0.752,0 0,3.558 c 0,0.984 -0.295,1.895 -1.455,1.895 -1.159,0 -1.455,-0.911 -1.455,-1.895 l 0,-3.558 -0.751,0 z"
       id="path129"
       inkscape:connector-curvature="0" /><path
       clip-path="url(#SVGID_14_)"
       d="m 137.397,51.476 c -0.328,-0.584 -0.879,-0.911 -1.551,-0.911 -0.911,0 -1.775,0.583 -1.775,1.559 0,0.839 0.624,1.231 1.311,1.527 l 0.416,0.176 c 0.52,0.215 1.04,0.495 1.04,1.143 0,0.632 -0.464,1.175 -1.112,1.175 -0.647,0 -1.175,-0.479 -1.167,-1.143 l -0.76,0.16 c 0.128,0.967 0.888,1.687 1.863,1.687 1.08,0 1.927,-0.783 1.927,-1.879 0,-1.007 -0.64,-1.479 -1.495,-1.815 l -0.432,-0.168 c -0.375,-0.144 -0.839,-0.392 -0.839,-0.863 0,-0.528 0.527,-0.856 1.007,-0.856 0.456,0 0.744,0.192 0.967,0.568 l 0.6,-0.36 z"
       id="path131"
       inkscape:connector-curvature="0" /><polygon
       clip-path="url(#SVGID_14_)"
       points="144.292,53.826 144.292,56.721 145.043,56.721 145.043,50.692 144.292,50.692 144.292,53.123 141.421,53.123 141.421,50.692 140.67,50.692 140.67,56.721 141.421,56.721 141.421,53.826 "
       id="polygon133" /><path
       clip-path="url(#SVGID_14_)"
       d="m 151.923,54.522 -2.143,0 1.071,-2.439 1.072,2.439 z m 0.312,0.687 0.687,1.511 0.808,0 -2.879,-6.284 -2.878,6.284 0.807,0 0.688,-1.511 2.767,0 z"
       id="path135"
       inkscape:connector-curvature="0"
       style="clip-rule:evenodd;fill-rule:evenodd" /><polygon
       clip-path="url(#SVGID_14_)"
       points="157.548,50.692 156.796,50.692 156.796,56.721 159.378,56.721 159.378,56.033 157.548,56.033 "
       id="polygon137" /><polygon
       clip-path="url(#SVGID_14_)"
       points="163.186,50.692 162.435,50.692 162.435,56.721 165.017,56.721 165.017,56.033 163.186,56.033 "
       id="polygon139" /><rect
       x="168.048"
       y="50.692001"
       clip-path="url(#SVGID_14_)"
       width="0.75199997"
       height="6.0289998"
       id="rect141" /><polygon
       clip-path="url(#SVGID_14_)"
       points="175.542,50.693 171.928,50.693 171.928,51.38 173.36,51.38 173.36,56.721 174.111,56.721 174.111,51.38 175.542,51.38 "
       id="polygon143" /><path
       clip-path="url(#SVGID_14_)"
       d="m 178.511,50.692 0,3.814 c 0,1.327 0.824,2.343 2.207,2.343 1.383,0 2.207,-1.016 2.207,-2.343 l 0,-3.814 -0.752,0 0,3.558 c 0,0.984 -0.296,1.895 -1.455,1.895 -1.159,0 -1.456,-0.911 -1.456,-1.895 l 0,-3.558 -0.751,0 z"
       id="path145"
       inkscape:connector-curvature="0" /><path
       clip-path="url(#SVGID_14_)"
       d="m 189.725,51.476 c -0.328,-0.584 -0.88,-0.911 -1.551,-0.911 -0.912,0 -1.775,0.583 -1.775,1.559 0,0.839 0.623,1.231 1.311,1.527 l 0.416,0.176 c 0.519,0.215 1.039,0.495 1.039,1.143 0,0.632 -0.463,1.175 -1.111,1.175 -0.648,0 -1.175,-0.479 -1.168,-1.143 l -0.759,0.16 c 0.128,0.967 0.888,1.687 1.863,1.687 1.079,0 1.927,-0.783 1.927,-1.879 0,-1.007 -0.64,-1.479 -1.496,-1.815 l -0.431,-0.168 c -0.376,-0.144 -0.839,-0.392 -0.839,-0.863 0,-0.528 0.527,-0.856 1.007,-0.856 0.456,0 0.743,0.192 0.967,0.568 l 0.6,-0.36 z"
       id="path147"
       inkscape:connector-curvature="0" /><rect
       x="40.362"
       y="54.599998"
       transform="matrix(-0.7069,-0.7073,0.7073,-0.7069,35.9442,135.429)"
       clip-path="url(#SVGID_14_)"
       width="11.338"
       height="11.335"
       id="rect149"
       style="fill:#ffd400" /><rect
       x="48.377998"
       y="46.584"
       transform="matrix(-0.7069,-0.7073,0.7073,-0.7069,55.2952,127.4153)"
       clip-path="url(#SVGID_14_)"
       width="11.338"
       height="11.335"
       id="rect151"
       style="fill:#f7941e" /><rect
       x="56.393002"
       y="38.567001"
       transform="matrix(-0.7069,-0.7073,0.7073,-0.7069,74.6482,119.4017)"
       clip-path="url(#SVGID_14_)"
       width="11.338"
       height="11.336"
       id="rect153"
       style="fill:#ed1c24" /><rect
       x="48.377998"
       y="62.618999"
       transform="matrix(-0.7069,-0.7073,0.7073,-0.7069,43.9535,154.7859)"
       clip-path="url(#SVGID_14_)"
       width="11.338"
       height="11.335"
       id="rect155"
       style="fill:#8dc63f" /><rect
       x="56.393002"
       y="54.603001"
       transform="matrix(-0.7069,-0.7073,0.7073,-0.7069,63.3071,146.7722)"
       clip-path="url(#SVGID_14_)"
       width="11.338"
       height="11.335"
       id="rect157"
       style="fill:#ffffff" /><rect
       x="64.407997"
       y="46.585999"
       transform="matrix(-0.7069,-0.7073,0.7073,-0.7069,82.6582,138.7578)"
       clip-path="url(#SVGID_14_)"
       width="11.338"
       height="11.336"
       id="rect159"
       style="fill:#92278f" /><rect
       x="56.393002"
       y="70.637001"
       transform="matrix(-0.7069,-0.7073,0.7073,-0.7069,51.9661,174.1423)"
       clip-path="url(#SVGID_14_)"
       width="11.338"
       height="11.335"
       id="rect161"
       style="fill:#00a651" /><rect
       x="64.407997"
       y="62.620998"
       transform="matrix(-0.7069,-0.7073,0.7073,-0.7069,71.3168,166.1287)"
       clip-path="url(#SVGID_14_)"
       width="11.338"
       height="11.336"
       id="rect163"
       style="fill:#00707e" /><rect
       x="72.422997"
       y="54.605"
       transform="matrix(-0.7069,-0.7073,0.7073,-0.7069,90.668,158.1142)"
       clip-path="url(#SVGID_14_)"
       width="11.338"
       height="11.335"
       id="rect165"
       style="fill:#2e3192" /></g></svg>